<svg width="266" height="50" viewBox="0 0 266 50" fill="none" xmlns="http://www.w3.org/2000/svg">
<rect width="266" height="50" rx="25" fill="#AEC756"/>
<path d="M36.365 34C36.7648 34 37.0015 33.765 37.7359 33.035L40.9266 29.8042C40.9674 29.7622 41.0408 29.7622 41.0734 29.8042L44.2641 33.035C44.9985 33.765 45.2352 34 45.635 34C46.1818 34 46.5 33.6308 46.5 32.9762V18.4084C46.5 16.814 45.7248 16 44.1907 16H37.8093C36.2752 16 35.5 16.814 35.5 18.4084V32.9762C35.5 33.6308 35.8182 34 36.365 34Z" fill="#24282C"/>
<path d="M68.1 19.588L70.69 25.244L73.196 19.588H75.114L71.544 27.344C71.3853 27.6893 71.2127 28.0067 71.026 28.296C70.8393 28.5853 70.62 28.8373 70.368 29.052C70.116 29.2573 69.8267 29.4207 69.5 29.542C69.1827 29.6633 68.814 29.724 68.394 29.724C68.0953 29.724 67.8387 29.7007 67.624 29.654C67.4187 29.6167 67.2413 29.5653 67.092 29.5C66.952 29.4347 66.8307 29.3647 66.728 29.29C66.6253 29.2153 66.5367 29.1453 66.462 29.08L67.484 27.792C67.5867 27.8853 67.722 27.9833 67.89 28.086C68.0673 28.1887 68.2773 28.24 68.52 28.24C68.7813 28.24 69.01 28.1607 69.206 28.002C69.402 27.834 69.5887 27.5913 69.766 27.274L66.154 19.588H68.1ZM80.5015 27.988C81.1081 27.988 81.6028 27.8667 81.9855 27.624C82.3681 27.372 82.5595 26.994 82.5595 26.49C82.5595 26.238 82.5081 26.0187 82.4055 25.832C82.3028 25.6453 82.1581 25.496 81.9715 25.384C81.7941 25.2627 81.5795 25.174 81.3275 25.118C81.0848 25.062 80.8188 25.034 80.5295 25.034H79.0175V27.988H80.5015ZM77.2675 29.5V19.588H83.6795V21.1H79.0175V23.522H80.6695C81.1921 23.522 81.6775 23.5827 82.1255 23.704C82.5735 23.816 82.9561 23.998 83.2735 24.25C83.6001 24.4927 83.8521 24.8007 84.0295 25.174C84.2161 25.5473 84.3095 25.986 84.3095 26.49C84.3095 27.0033 84.2115 27.4513 84.0155 27.834C83.8288 28.2073 83.5675 28.52 83.2315 28.772C82.9048 29.0147 82.5175 29.1967 82.0695 29.318C81.6215 29.4393 81.1408 29.5 80.6275 29.5H77.2675ZM87.2636 19.588H90.5116C91.0342 19.588 91.5196 19.644 91.9676 19.756C92.4156 19.8587 92.7982 20.0267 93.1156 20.26C93.4422 20.4933 93.6942 20.792 93.8716 21.156C94.0582 21.5107 94.1516 21.9447 94.1516 22.458C94.1516 22.9713 94.0536 23.4147 93.8576 23.788C93.6709 24.152 93.4096 24.4507 93.0736 24.684C92.7469 24.9173 92.3596 25.09 91.9116 25.202C91.4636 25.3047 90.9829 25.356 90.4696 25.356H89.0136V29.5H87.2636V19.588ZM89.0136 23.942H90.3436C90.6422 23.942 90.9176 23.914 91.1696 23.858C91.4216 23.802 91.6362 23.7133 91.8136 23.592C92.0002 23.4707 92.1402 23.3167 92.2336 23.13C92.3362 22.9433 92.3876 22.7193 92.3876 22.458C92.3876 22.1873 92.3362 21.9633 92.2336 21.786C92.1309 21.5993 91.9909 21.45 91.8136 21.338C91.6362 21.226 91.4216 21.1467 91.1696 21.1C90.9269 21.0533 90.6609 21.03 90.3716 21.03H89.0136V23.942ZM97.5498 29.5H95.6318L99.8458 19.588H101.554L105.74 29.5H103.78L102.87 27.246H98.4318L97.5498 29.5ZM98.9778 25.79H102.338L100.672 21.534L98.9778 25.79ZM111.609 29.5H109.845V21.1H106.807V19.588H114.647V21.1H111.609V29.5ZM116.924 19.588H118.674V23.396H119.962C120.503 23.396 121.002 23.4567 121.46 23.578C121.926 23.69 122.328 23.872 122.664 24.124C123 24.3667 123.261 24.6747 123.448 25.048C123.644 25.412 123.742 25.846 123.742 26.35C123.742 26.8633 123.644 27.316 123.448 27.708C123.252 28.1 122.981 28.4313 122.636 28.702C122.3 28.9633 121.898 29.164 121.432 29.304C120.965 29.4347 120.461 29.5 119.92 29.5H116.924V19.588ZM118.674 24.894V28.002H120.018C120.699 28.002 121.194 27.8573 121.502 27.568C121.819 27.2693 121.978 26.8867 121.978 26.42C121.978 25.944 121.819 25.5707 121.502 25.3C121.184 25.0293 120.69 24.894 120.018 24.894H118.674ZM132.815 27.036L137.687 19.588H139.731V29.5H137.981V22.052H137.953L133.067 29.5H131.037V19.588H132.787V27.036H132.815ZM144.527 23.718H145.535C146.179 23.718 146.687 23.5967 147.061 23.354C147.434 23.1113 147.621 22.7427 147.621 22.248C147.621 21.7907 147.467 21.436 147.159 21.184C146.86 20.932 146.463 20.806 145.969 20.806C145.549 20.806 145.194 20.918 144.905 21.142C144.615 21.366 144.405 21.674 144.275 22.066L142.763 21.422C143.033 20.7593 143.453 20.246 144.023 19.882C144.592 19.518 145.278 19.336 146.081 19.336C146.557 19.336 147 19.3967 147.411 19.518C147.821 19.63 148.176 19.798 148.475 20.022C148.783 20.246 149.021 20.5307 149.189 20.876C149.366 21.212 149.455 21.604 149.455 22.052C149.455 22.36 149.394 22.64 149.273 22.892C149.151 23.144 148.997 23.3633 148.811 23.55C148.624 23.7367 148.414 23.8907 148.181 24.012C147.947 24.124 147.719 24.208 147.495 24.264V24.292C147.747 24.32 148.013 24.3807 148.293 24.474C148.573 24.5673 148.829 24.712 149.063 24.908C149.296 25.0947 149.487 25.3373 149.637 25.636C149.786 25.9253 149.861 26.28 149.861 26.7C149.861 27.176 149.758 27.6007 149.553 27.974C149.357 28.3473 149.086 28.6693 148.741 28.94C148.405 29.2013 148.003 29.402 147.537 29.542C147.079 29.682 146.585 29.752 146.053 29.752C145.567 29.752 145.133 29.6913 144.751 29.57C144.368 29.458 144.032 29.2993 143.743 29.094C143.453 28.8793 143.206 28.6273 143.001 28.338C142.795 28.0487 142.632 27.7313 142.511 27.386L144.065 26.798C144.251 27.274 144.508 27.6427 144.835 27.904C145.161 28.156 145.6 28.282 146.151 28.282C146.767 28.282 147.243 28.142 147.579 27.862C147.915 27.5727 148.083 27.1853 148.083 26.7C148.083 26.112 147.859 25.6873 147.411 25.426C146.972 25.1553 146.323 25.02 145.465 25.02H144.527V23.718ZM167.346 24.516C167.346 25.2907 167.21 26 166.94 26.644C166.678 27.2787 166.31 27.8293 165.834 28.296C165.367 28.7627 164.807 29.1267 164.154 29.388C163.51 29.64 162.81 29.766 162.054 29.766C161.298 29.766 160.598 29.64 159.954 29.388C159.31 29.1267 158.75 28.7627 158.274 28.296C157.798 27.8293 157.424 27.2787 157.154 26.644C156.892 26 156.762 25.2907 156.762 24.516C156.762 23.7413 156.892 23.0367 157.154 22.402C157.424 21.758 157.798 21.212 158.274 20.764C158.75 20.3067 159.31 19.952 159.954 19.7C160.598 19.448 161.298 19.322 162.054 19.322C162.81 19.322 163.51 19.448 164.154 19.7C164.807 19.952 165.367 20.3067 165.834 20.764C166.31 21.212 166.678 21.758 166.94 22.402C167.21 23.0367 167.346 23.7413 167.346 24.516ZM165.47 24.516C165.47 24.0213 165.39 23.5547 165.232 23.116C165.073 22.6773 164.844 22.2947 164.546 21.968C164.247 21.6413 163.888 21.3847 163.468 21.198C163.048 21.002 162.576 20.904 162.054 20.904C161.531 20.904 161.06 21.002 160.64 21.198C160.22 21.3847 159.86 21.6413 159.562 21.968C159.263 22.2947 159.034 22.6773 158.876 23.116C158.717 23.5547 158.638 24.0213 158.638 24.516C158.638 25.02 158.717 25.496 158.876 25.944C159.044 26.392 159.272 26.7793 159.562 27.106C159.86 27.4327 160.22 27.694 160.64 27.89C161.06 28.0767 161.531 28.17 162.054 28.17C162.567 28.17 163.034 28.0767 163.454 27.89C163.883 27.694 164.242 27.4327 164.532 27.106C164.83 26.7793 165.059 26.392 165.218 25.944C165.386 25.496 165.47 25.02 165.47 24.516ZM173.926 29.5H172.162V21.1H169.124V19.588H176.964V21.1H173.926V29.5ZM184.546 26.798H184.574L187.276 19.588H189.852V29.5H188.116L188.144 21.758H188.116L185.078 29.5H183.93L180.92 21.758H180.892L180.92 29.5H179.24V19.588H181.774L184.546 26.798ZM194.868 27.988H199.796V29.5H193.16V19.588H199.586V21.1H194.868V23.676H199.292V25.118H194.868V27.988ZM206.307 29.5H204.543V21.1H201.505V19.588H209.345V21.1H206.307V29.5ZM221.701 24.516C221.701 25.2907 221.566 26 221.295 26.644C221.034 27.2787 220.665 27.8293 220.189 28.296C219.722 28.7627 219.162 29.1267 218.509 29.388C217.865 29.64 217.165 29.766 216.409 29.766C215.653 29.766 214.953 29.64 214.309 29.388C213.665 29.1267 213.105 28.7627 212.629 28.296C212.153 27.8293 211.78 27.2787 211.509 26.644C211.248 26 211.117 25.2907 211.117 24.516C211.117 23.7413 211.248 23.0367 211.509 22.402C211.78 21.758 212.153 21.212 212.629 20.764C213.105 20.3067 213.665 19.952 214.309 19.7C214.953 19.448 215.653 19.322 216.409 19.322C217.165 19.322 217.865 19.448 218.509 19.7C219.162 19.952 219.722 20.3067 220.189 20.764C220.665 21.212 221.034 21.758 221.295 22.402C221.566 23.0367 221.701 23.7413 221.701 24.516ZM219.825 24.516C219.825 24.0213 219.746 23.5547 219.587 23.116C219.428 22.6773 219.2 22.2947 218.901 21.968C218.602 21.6413 218.243 21.3847 217.823 21.198C217.403 21.002 216.932 20.904 216.409 20.904C215.886 20.904 215.415 21.002 214.995 21.198C214.575 21.3847 214.216 21.6413 213.917 21.968C213.618 22.2947 213.39 22.6773 213.231 23.116C213.072 23.5547 212.993 24.0213 212.993 24.516C212.993 25.02 213.072 25.496 213.231 25.944C213.399 26.392 213.628 26.7793 213.917 27.106C214.216 27.4327 214.575 27.694 214.995 27.89C215.415 28.0767 215.886 28.17 216.409 28.17C216.922 28.17 217.389 28.0767 217.809 27.89C218.238 27.694 218.598 27.4327 218.887 27.106C219.186 26.7793 219.414 26.392 219.573 25.944C219.741 25.496 219.825 25.02 219.825 24.516ZM224.529 29.5V19.588H226.279V23.466C226.466 23.466 226.648 23.4753 226.825 23.494C227.003 23.5033 227.18 23.5173 227.357 23.536L230.717 19.588H232.635L229.093 23.942C230.092 24.334 230.89 24.978 231.487 25.874C232.094 26.77 232.528 27.9787 232.789 29.5H230.871C230.722 28.7067 230.526 28.0207 230.283 27.442C230.05 26.8633 229.751 26.3873 229.387 26.014C229.023 25.6407 228.585 25.37 228.071 25.202C227.558 25.034 226.961 24.9593 226.279 24.978V29.5H224.529Z" fill="#24282C"/>
</svg>
