<svg width="281" height="50" viewBox="0 0 281 50" fill="none" xmlns="http://www.w3.org/2000/svg">
<rect width="281" height="50" rx="25" fill="#24282C"/>
<path d="M36.365 34C36.7648 34 37.0015 33.765 37.7359 33.035L40.9266 29.8042C40.9674 29.7622 41.0408 29.7622 41.0734 29.8042L44.2641 33.035C44.9985 33.765 45.2352 34 45.635 34C46.1818 34 46.5 33.6308 46.5 32.9762V18.4084C46.5 16.814 45.7248 16 44.1907 16H37.8093C36.2752 16 35.5 16.814 35.5 18.4084V32.9762C35.5 33.6308 35.8182 34 36.365 34Z" fill="#D3F36B"/>
<path d="M67.484 29.5V31.446H65.958V27.988H67.456L70.62 19.588H72.328L75.464 27.988H76.99V31.446H75.464V29.5H67.484ZM69.248 27.988H73.616L71.432 21.548L69.248 27.988ZM89.1932 24.516C89.1932 25.2907 89.0578 26 88.7872 26.644C88.5258 27.2787 88.1572 27.8293 87.6812 28.296C87.2145 28.7627 86.6545 29.1267 86.0012 29.388C85.3572 29.64 84.6572 29.766 83.9012 29.766C83.1452 29.766 82.4452 29.64 81.8012 29.388C81.1572 29.1267 80.5972 28.7627 80.1212 28.296C79.6452 27.8293 79.2718 27.2787 79.0012 26.644C78.7398 26 78.6092 25.2907 78.6092 24.516C78.6092 23.7413 78.7398 23.0367 79.0012 22.402C79.2718 21.758 79.6452 21.212 80.1212 20.764C80.5972 20.3067 81.1572 19.952 81.8012 19.7C82.4452 19.448 83.1452 19.322 83.9012 19.322C84.6572 19.322 85.3572 19.448 86.0012 19.7C86.6545 19.952 87.2145 20.3067 87.6812 20.764C88.1572 21.212 88.5258 21.758 88.7872 22.402C89.0578 23.0367 89.1932 23.7413 89.1932 24.516ZM87.3172 24.516C87.3172 24.0213 87.2378 23.5547 87.0792 23.116C86.9205 22.6773 86.6918 22.2947 86.3932 21.968C86.0945 21.6413 85.7352 21.3847 85.3152 21.198C84.8952 21.002 84.4238 20.904 83.9012 20.904C83.3785 20.904 82.9072 21.002 82.4872 21.198C82.0672 21.3847 81.7078 21.6413 81.4092 21.968C81.1105 22.2947 80.8818 22.6773 80.7232 23.116C80.5645 23.5547 80.4852 24.0213 80.4852 24.516C80.4852 25.02 80.5645 25.496 80.7232 25.944C80.8912 26.392 81.1198 26.7793 81.4092 27.106C81.7078 27.4327 82.0672 27.694 82.4872 27.89C82.9072 28.0767 83.3785 28.17 83.9012 28.17C84.4145 28.17 84.8812 28.0767 85.3012 27.89C85.7305 27.694 86.0898 27.4327 86.3792 27.106C86.6778 26.7793 86.9065 26.392 87.0652 25.944C87.2332 25.496 87.3172 25.02 87.3172 24.516ZM95.2554 27.988C95.862 27.988 96.3567 27.8667 96.7394 27.624C97.122 27.372 97.3134 26.994 97.3134 26.49C97.3134 26.238 97.262 26.0187 97.1594 25.832C97.0567 25.6453 96.912 25.496 96.7254 25.384C96.548 25.2627 96.3334 25.174 96.0814 25.118C95.8387 25.062 95.5727 25.034 95.2834 25.034H93.7714V27.988H95.2554ZM92.0214 29.5V19.588H98.4334V21.1H93.7714V23.522H95.4234C95.946 23.522 96.4314 23.5827 96.8794 23.704C97.3274 23.816 97.71 23.998 98.0274 24.25C98.354 24.4927 98.606 24.8007 98.7834 25.174C98.97 25.5473 99.0634 25.986 99.0634 26.49C99.0634 27.0033 98.9654 27.4513 98.7694 27.834C98.5827 28.2073 98.3214 28.52 97.9854 28.772C97.6587 29.0147 97.2714 29.1967 96.8234 29.318C96.3754 29.4393 95.8947 29.5 95.3814 29.5H92.0214ZM102.731 29.5H100.813L105.027 19.588H106.735L110.921 29.5H108.961L108.051 27.246H103.613L102.731 29.5ZM104.159 25.79H107.519L105.853 21.534L104.159 25.79ZM113.039 19.588H116.525C116.908 19.588 117.295 19.63 117.687 19.714C118.079 19.7887 118.429 19.924 118.737 20.12C119.054 20.3067 119.311 20.5633 119.507 20.89C119.712 21.2167 119.815 21.632 119.815 22.136C119.815 22.668 119.661 23.1207 119.353 23.494C119.045 23.8673 118.639 24.124 118.135 24.264V24.292C118.434 24.3387 118.714 24.4273 118.975 24.558C119.236 24.6793 119.46 24.8427 119.647 25.048C119.843 25.244 119.992 25.482 120.095 25.762C120.207 26.0327 120.263 26.3407 120.263 26.686C120.263 27.162 120.165 27.5773 119.969 27.932C119.773 28.2867 119.502 28.5807 119.157 28.814C118.821 29.0473 118.424 29.22 117.967 29.332C117.519 29.444 117.038 29.5 116.525 29.5H113.039V19.588ZM114.747 23.718H116.371C116.604 23.718 116.824 23.6947 117.029 23.648C117.244 23.592 117.43 23.508 117.589 23.396C117.748 23.284 117.874 23.144 117.967 22.976C118.06 22.7987 118.107 22.584 118.107 22.332C118.107 21.8653 117.93 21.5293 117.575 21.324C117.22 21.1187 116.758 21.016 116.189 21.016H114.747V23.718ZM114.747 28.058H116.329C116.6 28.058 116.866 28.0347 117.127 27.988C117.388 27.932 117.617 27.848 117.813 27.736C118.018 27.6147 118.182 27.456 118.303 27.26C118.434 27.064 118.499 26.8213 118.499 26.532C118.499 26 118.312 25.622 117.939 25.398C117.566 25.1647 117.057 25.048 116.413 25.048H114.747V28.058ZM124.95 27.036L129.822 19.588H131.866V29.5H130.116V22.052H130.088L125.202 29.5H123.172V19.588H124.922V27.036H124.95ZM138.943 29.5H137.179V21.1H134.141V19.588H141.981V21.1H138.943V29.5ZM144.258 19.588H146.008V23.396H147.296C147.837 23.396 148.336 23.4567 148.794 23.578C149.26 23.69 149.662 23.872 149.998 24.124C150.334 24.3667 150.595 24.6747 150.782 25.048C150.978 25.412 151.076 25.846 151.076 26.35C151.076 26.8633 150.978 27.316 150.782 27.708C150.586 28.1 150.315 28.4313 149.97 28.702C149.634 28.9633 149.232 29.164 148.766 29.304C148.299 29.4347 147.795 29.5 147.254 29.5H144.258V19.588ZM146.008 24.894V28.002H147.352C148.033 28.002 148.528 27.8573 148.836 27.568C149.153 27.2693 149.312 26.8867 149.312 26.42C149.312 25.944 149.153 25.5707 148.836 25.3C148.518 25.0293 148.024 24.894 147.352 24.894H146.008ZM158.371 19.588H161.857C162.24 19.588 162.627 19.63 163.019 19.714C163.411 19.7887 163.761 19.924 164.069 20.12C164.386 20.3067 164.643 20.5633 164.839 20.89C165.044 21.2167 165.147 21.632 165.147 22.136C165.147 22.668 164.993 23.1207 164.685 23.494C164.377 23.8673 163.971 24.124 163.467 24.264V24.292C163.766 24.3387 164.046 24.4273 164.307 24.558C164.568 24.6793 164.792 24.8427 164.979 25.048C165.175 25.244 165.324 25.482 165.427 25.762C165.539 26.0327 165.595 26.3407 165.595 26.686C165.595 27.162 165.497 27.5773 165.301 27.932C165.105 28.2867 164.834 28.5807 164.489 28.814C164.153 29.0473 163.756 29.22 163.299 29.332C162.851 29.444 162.37 29.5 161.857 29.5H158.371V19.588ZM160.079 23.718H161.703C161.936 23.718 162.156 23.6947 162.361 23.648C162.576 23.592 162.762 23.508 162.921 23.396C163.08 23.284 163.206 23.144 163.299 22.976C163.392 22.7987 163.439 22.584 163.439 22.332C163.439 21.8653 163.262 21.5293 162.907 21.324C162.552 21.1187 162.09 21.016 161.521 21.016H160.079V23.718ZM160.079 28.058H161.661C161.932 28.058 162.198 28.0347 162.459 27.988C162.72 27.932 162.949 27.848 163.145 27.736C163.35 27.6147 163.514 27.456 163.635 27.26C163.766 27.064 163.831 26.8213 163.831 26.532C163.831 26 163.644 25.622 163.271 25.398C162.898 25.1647 162.389 25.048 161.745 25.048H160.079V28.058ZM183.084 24.516C183.084 25.2907 182.948 26 182.678 26.644C182.416 27.2787 182.048 27.8293 181.572 28.296C181.105 28.7627 180.545 29.1267 179.892 29.388C179.248 29.64 178.548 29.766 177.792 29.766C177.036 29.766 176.336 29.64 175.692 29.388C175.048 29.1267 174.488 28.7627 174.012 28.296C173.536 27.8293 173.162 27.2787 172.892 26.644C172.63 26 172.5 25.2907 172.5 24.516C172.5 23.7413 172.63 23.0367 172.892 22.402C173.162 21.758 173.536 21.212 174.012 20.764C174.488 20.3067 175.048 19.952 175.692 19.7C176.336 19.448 177.036 19.322 177.792 19.322C178.548 19.322 179.248 19.448 179.892 19.7C180.545 19.952 181.105 20.3067 181.572 20.764C182.048 21.212 182.416 21.758 182.678 22.402C182.948 23.0367 183.084 23.7413 183.084 24.516ZM181.208 24.516C181.208 24.0213 181.128 23.5547 180.97 23.116C180.811 22.6773 180.582 22.2947 180.284 21.968C179.985 21.6413 179.626 21.3847 179.206 21.198C178.786 21.002 178.314 20.904 177.792 20.904C177.269 20.904 176.798 21.002 176.378 21.198C175.958 21.3847 175.598 21.6413 175.3 21.968C175.001 22.2947 174.772 22.6773 174.614 23.116C174.455 23.5547 174.376 24.0213 174.376 24.516C174.376 25.02 174.455 25.496 174.614 25.944C174.782 26.392 175.01 26.7793 175.3 27.106C175.598 27.4327 175.958 27.694 176.378 27.89C176.798 28.0767 177.269 28.17 177.792 28.17C178.305 28.17 178.772 28.0767 179.192 27.89C179.621 27.694 179.98 27.4327 180.27 27.106C180.568 26.7793 180.797 26.392 180.956 25.944C181.124 25.496 181.208 25.02 181.208 24.516ZM189.664 29.5H187.9V21.1H184.862V19.588H192.702V21.1H189.664V29.5ZM200.284 26.798H200.312L203.014 19.588H205.59V29.5H203.854L203.882 21.758H203.854L200.816 29.5H199.668L196.658 21.758H196.63L196.658 29.5H194.978V19.588H197.512L200.284 26.798ZM210.606 27.988H215.534V29.5H208.898V19.588H215.324V21.1H210.606V23.676H215.03V25.118H210.606V27.988ZM222.045 29.5H220.281V21.1H217.243V19.588H225.083V21.1H222.045V29.5ZM227.359 29.5V19.588H229.109V23.466C229.296 23.466 229.478 23.4753 229.655 23.494C229.833 23.5033 230.01 23.5173 230.187 23.536L233.547 19.588H235.465L231.923 23.942C232.922 24.334 233.72 24.978 234.317 25.874C234.924 26.77 235.358 27.9787 235.619 29.5H233.701C233.552 28.7067 233.356 28.0207 233.113 27.442C232.88 26.8633 232.581 26.3873 232.217 26.014C231.853 25.6407 231.415 25.37 230.901 25.202C230.388 25.034 229.791 24.9593 229.109 24.978V29.5H227.359ZM239.981 27.036L244.853 19.588H246.897V29.5H245.147V22.052H245.119L240.233 29.5H238.203V19.588H239.953V27.036H239.981Z" fill="#D3F36B"/>
</svg>
